<svg height="392.428337" viewBox="0 0 200.00001 307.50332" width="254.823596" xmlns="http://www.w3.org/2000/svg" xmlns:xlink="http://www.w3.org/1999/xlink"><clipPath id="a"><path d="m0 0h595.276v841.89h-595.276z"/></clipPath><g transform="matrix(2.9080064 0 0 2.9080064 -3393.55902 740.17656)"><path d="m1198.4891-254.41638c1.4938.2475 2.6763 1.74875 3.4125 3.06.1363-.475.039-.98875 0-1.50125l-.1937-.97h.077c.66.93125.93 2.09125.8525 3.2125-.1538-.0375-.2713-.095-.4638-.0375 2.5 1.425 1.4725 4.6375 2.1513 6.97625.2712 1.615.6975 3.17375 1.2412 4.67625 1.8813 1.14 3.315 2.88875 4.245 4.80875.1363.5325.1563 1.16-.1925 1.59625-1.0662 1.23625-2.6762 1.2925-4.1887 1.55875-1.2025.19-2.4438.17125-3.6263.36125-2.5775 2.87125-4.3625 6.08375-5.35 9.56125-.6212.45625-1.1637 1.1025-1.4162 1.73.485-.49375.9312-1.08375 1.5512-1.31125.97-.58875 1.9-1.445 2.365-2.4525l.195.0575c.019.475-.079.9125-.195 1.33.5438-.19 1.0675-.6075 1.63-.87375.057-.0575.135-.0375.1738.0375l.059.0763c-.175.3425-.5437.60875-.6412.95125 2.1725-.21 4.15-.83625 6.0887-1.57875.039.21.1163.4.2325.57.175-.15125.078-.53125.175-.77875.2525-2.60375 2.0738-4.58125 3.3925-6.7475.8725-1.5025 1.745-3.00375 2.3075-4.6575.078.1325.175.36125.3688.39875-.2525-1.045-.1363-2.2425.2525-3.2125.3287-.77875 1.105-1.1975 1.88-1.33 2.055-.1525 3.84.74125 5.39 1.93875l.019-.0188c-1.3187-1.4075-3.0437-2.1675-5.0012-2.24375.8525-1.88125 3.2575-1.4825 4.6337-2.87 1.2988-.96875 2.4625-2.28125 3.4513-3.51625.31-.19.6012-.38.9887-.36125.5238.0375.8725.58875 1.0275 1.02625.31 1.35.2325 3.00375-.97 3.9725-.8525.79875-1.9575 1.08375-2.9075 1.6925-.175.0563-.3887.075-.5425.19.135.17125.4263.075.6388.095.039.7225.31 1.425 1.0087 1.78625 2.695 1.6725 5.7975 2.415 8.9 3.13625 1.7838.51375 3.78 1.73 4.1875 3.6875.078.55125.1163 1.1225-.2912 1.54-.6388.45625-1.4338.0387-2.055-.15125.485-.5325.64-1.23625.485-1.95875-1.0463-3.55375-5.1188-3.345-8.1438-3.95375-.91-.17125-1.8037-.45625-2.6375-.7225.7763.59 1.8238.79875 2.7925 1.04625 2.695.6275 6.205.3225 7.5038 3.345.155.59.2525 1.35-.155 1.84375-.4063.51375-1.2013.285-1.7063.21-2.6175-1.14125-5.08-2.68125-7.8137-3.555-.02.0187-.02.0375-.02.0762 2.4437 1.15875 4.8862 2.375 7.2712 3.66875l.9888.34125c.4075.8375.2525 2.03375-.2313 2.77625-.2337.2275-.5237.265-.8337.285-1.4938-.36125-1.94-1.93875-2.91-2.9275-1.7825-2.11-4.0525-4.1825-6.805-4.67625-2.1125-.5325-4.6338-.60875-6.805-.30375.3675.17.8525.17 1.2987.2275-1.28 3.70625-1.9587 7.68-3.82 11.12.3888-.19.7563-.6275.97-.98875l.2325.0762c-.175.76-.485 1.3875-1.0087 1.99625l.039.0575c.485-.115.9125-.41875 1.3188-.59l.1175.11375c-.5238.79875-1.3975 1.40625-2.25 1.7875l.097.0762c.5812.0563 1.1237.19 1.6475.38-.019.0763.039.17125-.039.20875-5.0412.285-9.6762 1.59625-13.805 4.04875-.6012.55125-1.2987.97-1.88 1.59625l.1538-.0375c.5237-.3225 1.0287-.6275 1.5712-.9125-.2912 4.20125.7763 8.0025 2.405 11.52 1.0663 2.09125 2.5588 4.1425 4.575 5.645l.019-.0188-.465-.66625c1.26.22875 2.2887 1.23625 3.2762 2.09125l.02-.0188c-.64-.87375-1.5312-1.6725-2.5012-2.09125.3112 0 .6787.17125.9887.19-.2712-.30375-.6775-.4175-1.0862-.49375 1.28-1.84375 1.8625-4.39125 1.1062-6.63375 2.4238 1.50125 3.2575 4.29625 3.6638 6.9375.2325-.87375-.078-1.7675.155-2.66.059-.0387.1362-.0575.2137-.0575.8725 1.6725 1.1825 3.61125.8913 5.645l.039.0575c.2138-.2275.3488-.49375.4663-.76h.2137c-.1175 1.50125-.195 3.07875-.7187 4.42875-.155.2475-.2513.57-.465.76-.039-.55125-.058-1.12125-.3875-1.52125.5237 4.6775-1.1438 8.89625-4.13 12.31875.059.26625.3487.3225.5237.51375.31.1325.62.285.9688.36-.4263.22875-.9688.285-1.4538.2475.057.285.7375.64625.2913.98875-.485.095-.8538-.17125-1.2413-.32375-.1737.2275.2525.4.31.60875.059.20875-.097.36125-.2325.43625-.1937.02-.3875-.0187-.5425-.075-1.9387 4.10625-3.4712 8.345-4.2662 12.88875 0 .4925-.2513 1.10125.2712 1.40625 2.6375 1.15875 5.6038 1.615 8.5513 2.07125l7.2125.8175c2.6175.305 5.3712.38 7.6587 1.50125.2913.17125.4263.47625.33.78-.485.8175-1.4362 1.045-2.21 1.44375-.5237.285-1.2225.305-1.5712.85625-.1363 1.1025-.2913 2.35625-1.3575 2.94625-1.8038.57125-3.7225.20875-5.6225.57125-1.745.22625-2.5013 1.82375-3.9175 2.775-.8138.2275-1.6288-.115-2.3063-.4575-4.4975-2.0325-8.88-4.61875-12.6037-8.1725-.1925-.2475-.3863-.495-.5038-.78-.4837.17125-.95.57-1.4537.78-3.5488 1.7475-7.4063 2.755-11.3425 3.5725-1.0088.1525-2.2688.0575-3.2-.36l-3.6825-2.33875c-1.8238-.36125-3.7038-.6275-5.2938-1.54-.6987-.39875-.6387-1.1975-.775-1.8825-1.0288-1.00625-2.1525-1.92-2.7537-3.23125-.039-.24625-.135-.55125 0-.77875.5812-.6275 1.5125-.665 2.3662-.68375l4.245.1325 7.6975.45625c3.7038.115 7.2713-.0375 10.8575-.22875l1.3388-.17.1162-.21c1.105-4.86625 1.105-10.47375.8913-15.51-.3875.285-.6 1.00625-1.1625.9875-.3688-.475-.098-1.17875 0-1.65375-.35.17125-.66.475-.9313.74125.1363-.87375.465-1.7675 1.2988-2.2425v-.0763c-1.28-1.14125-2.2288-2.585-2.8875-4.04875l-.1175-.0763c-1.5313-4.2775-2.5013-8.80125-3.005-13.49625.057.0375.155.095.1937.0188-.5625-2.41375-.3887-5.03625-1.0475-7.4125-.29-1.1025-.465-2.24375-.6587-3.40375l-.059-.0375c.059-2.1675.9125-4.03 1.8425-5.83625-.7162.85625-1.24 1.9775-1.6675 3.02375-.31.96875-.5425 1.97625-.5237 3.04-1.5313 1.04625-2.675 2.6625-3.4313 4.24-.7375-.26625-1.59-.475-2.405-.22875.7188.0763 1.455.11375 2.095.41875.057.0187.1163.0375.1738.11375v.1525c1.92 1.69125 2.9287 4.0675 5.08 5.645.6212 4.77125 1.4737 9.42875 3.0637 13.83875-.7562.24625-1.6862-.0575-2.385.36125-.2912.3225-.6012.72125-1.0275.78-1.085-.22875-2.0162-1.065-2.695-1.92125-1.5125-2.07125-2.1137-4.5425-2.075-7.20375.096-.77875.2325-1.76875 1.1438-2.05375.31-.0375.5812.0388.815.21 1.1237 1.54.9112 3.63 1.395 5.455l.039-.0763c-.135-1.9575-.058-3.9725-1.1437-5.56875-.2325-.1525-.135-.3425 0-.47625.2337-.20875.4662-.36.815-.30375.8137.32375 1.0475 1.1975 1.1237 1.99625-.5425 2.1675-.5812 4.3725-.2325 6.63375.059-1.8825.02-3.99125.3888-5.835.2712-.76.5625-1.5025.93-2.22375-1.105-1.3125-2.695-1.71125-4.1688-2.30125-1.5312-.475-3.0437-1.02625-4.42-1.8625l-.039.0375.4275.685c-.6988-.19-1.4163-.6075-1.96-1.16l-.057.02.1162.8925c-1.145-.6075-1.6475-1.9-1.8037-3.1175-.2513.17125-.3288.57-.5425.855-.6388-1.88125.1362-3.7825 1.3575-5.17 3.4312-3.45875 6.36-7.3175 9.2875-10.9675.6587-.685 1.2787-1.36875 2.0937-1.90125-.465-.11375-.815.0187-1.26.0387 0-.0762-.097-.115-.079-.19125.9125-.68375 2.0362-.87375 3.2-.8925-.175-.17125-.4663-.2475-.6975-.30375-.059-.0388-.02-.115-.04-.1725.9125-.18875 1.8812-.0563 2.5412.495-.3113.6075-.7762 1.16-1.145 1.74875l.04.0375c1.8025-1.805 3.0625-3.89625 3.78-6.1575l-.039-.0575c-3.315.87375-7.6.96875-10.47-.95125-.039-.0563-.02-.15125-.096-.19l-.039.0962c-1.3775-.76125-2.3088-2.0725-3.5675-3.15625-3.5488-1.16-6.9225-3.19375-9.5213-6.19625-.7362-.97-1.5687-2.18625-.9875-3.46.9488-.855 2.5013-.36125 3.5675-.0763 1.9388.60875 3.645 1.7875 5.2738 3.04125 2.4425.38 5.1562.665 7.6775.45625-.35-.6075-.775-1.36875-.4075-2.0525.8537-1.04625 2.21-1.2925 3.51-1.46375l1.5499-.0763c.9126-.83625.6026-2.1675.9701-3.23125.2912-1.1025.5437-2.37625 1.6287-3.0225.5813-.7225 1.1825-1.84375 2.3075-1.7675.4463.2275.3688.74125.3875 1.1975.155.0188.098-.19.1363-.285.076-.4375.019-.9125-.3488-1.14125v-.0762c1.1238-1.12125 2.5388-1.7675 3.9925-2.26125.37.0763.6988.30375 1.0675.4175-.098-.36125-.6012-.39875-.795-.68375-.7362-.26625-1.5125-.41875-2.3463-.45625v-.0762c.9888-.36125 2.2301-.285 3.1601.11375-.3675-1.1975-1.435-2.395-2.5976-2.9275v-.075c.1163.0375.2913.0188.3488.11375"/><g fill="#fff"><path d="m1201.0685-249.01813c.6013 1.52125.096 3.4025.31 5.01875-.35-1.3125-.2325-2.77625-.3687-4.16375-.039-.5125-.33-1.045-.8538-1.25375l-.795-.13375c.5238-.20875 1.3388-.0187 1.7075.5325"/><path d="m1199.3615-246.96513c.7562 2.75625.098 5.7025-.8525 8.155-.02-.285-.1162-.59-.3687-.74125-.175-.0763-.4076-.0387-.5625.0563-.6788.60875-.62 1.54-.6 2.37625-.02.13375.096.2475.076.36125-.5425.4-1.1238.875-1.8225.70375-.3487-1.825-.1162-3.8775.2525-5.62625.465-1.825 1.1437-3.57375 2.4238-5.07625.3487-.36125 1.1437-.9125 1.4537-.20875"/><path d="m1193.797-245.88163c.2713 2.12875-.2712 4.23875-.7762 6.19625-.096-.095-.076-.4175-.3288-.475-.5812 0-.7762.6275-.93 1.0275-.079.38-.175.72125-.195 1.12125-.2325-.38-.135-.83625-.1537-1.3125.135-2.12875.3487-4.3525 1.2975-6.215.2137-.3425.8337-.98875 1.0862-.3425"/></g><path d="m1178.6543-236.16813c.7762.8175 1.5513 1.5775 2.2887 2.395-.4849-.98875-1.3774-1.92-2.1524-2.85125 3.4512.39875 6.96.74125 10.295-.11375.2712-.0762.6399-.21.6987-.55125-.3113-.76-1.2225-.85625-1.92-1.065.4263.285 1.0662.41875 1.4537.89375.078.19-.1362.2275-.2324.30375-.8138.26625-1.6863.41875-2.5788.4375-.4462-.475-.95-1.12125-.64-1.80625.4075-.6275 1.1838-.77875 1.8425-1.02625.795-.2275 1.6863-.30375 2.5775-.26625.7375.70375.4475 1.92 1.3 2.47125.7375.38 1.9963-.665 2.385.5325.31.5125.7363 1.08375 1.3388 1.21625 1.6075-.0575 2.6162-1.4825 3.9537-2.16625 1.5125-1.19875 3.5875-1.94 5.4875-1.2175 2.0738.98875 3.8387 3.0225 4.7112 5.05625.1163.38.059.8175-.1937 1.14125-1.435 1.36875-3.5875 1.25375-5.565 1.52-1.8412.17125-3.7213.305-5.37.93125.5825-1.71.9688-3.51625 1.745-5.15125 1.125-.3425 2.345-.45625 3.5675-.53125l-.096-.0763c-2.2888-.305-4.615.20875-6.34 1.59625.7162-.3425 1.5312-.6275 2.3262-.83625-.99 2.33875-1.3 4.92375-2.735 7.0525-1.9387 1.97625-4.7687 2.22375-7.6 2.28125-2.4825-.0575-4.6725-.83625-6.5337-2.32-3.3738-2.9275-6.1075-7.39375-10.315-9.295-.1938-.0762-.4075-.095-.6013-.15125.33.2275.8338.43625 1.2225.68375 2.5012 1.5775 4.4787 3.80125 6.34 6.02625-2.89-1.0275-5.74-2.8325-7.9687-5.095-.8538-1.045-1.9788-2.1475-1.6875-3.5925.3874-.5325 1.2024-.41875 1.8412-.38 2.735.475 5.0613 2.03375 7.155 3.95375" fill="#f7a800"/><path d="m1207.8733-236.89063c.019.0187 0 .0187-.019.0375l-.039-.0375h.057z" fill="#fff"/><path d="m1191.5866-236.5105c-.2712.285-.62.60875-1.0862.4375-.1538-.0762-.2125-.32375-.096-.45625.33-.22875.8725-.1525 1.1825.0187"/><path d="m1191.1606-236.41538c-.175.095-.35.20875-.5625.1325-.039-.0187-.02-.075-.02-.11375.155-.0763.4075-.15125.5825-.0188" fill="#f7a800"/><path d="m1193.2928-234.57163c-.039.20875-.155.39875-.3675.45625-.1563 0-.3112-.0575-.3687-.20875-.1163-.4.2324-.74125.5037-1.02625v-.17125c.2125.24625.3688.6075.2325.95"/><path d="m1193.0996-235.02788c0 .22875.039.58875-.1937.70375-.1163.0187-.1563-.115-.195-.17125.079-.22875.175-.475.3887-.5325" fill="#f7a800"/><path d="m1197.8109-225.33325c-.3688.87375-.7762 1.74875-1.105 2.6425-.815.4175-2.075.51375-2.9088.0563-.2524-.19-.6012-.4175-.6199-.7225.4462-.8175.795-1.6725 1.1824-2.5275 1.0088.58875 2.2488.68375 3.4513.55125" fill="#fff"/><path d="m1189.5706-206.47651c-.9112-2.89-1.2987-6.5775.4263-9.2-1.26 2.8125-1.0863 6.21625-.4263 9.2" fill="#fff"/><path d="m0 0-.061.06z" fill="#fff" transform="matrix(1.25 0 0 -1.25 1208.8815 -195.69925)"/><g clip-path="url(#a)" transform="matrix(1.25 0 0 -1.25 570.80964 555.50712)"><path d="m0 0c.139.107.233.289.372.365-.171-.623-.698-1.186-1.241-1.673.403-.197.775.091 1.133.228-.9-3.802-2.249-7.466-3.801-11.04-.17.486-.17 1.11-.233 1.703-.279 2.951-.124 6.372.125 9.337.108.015.248.046.278.168.031.213-.108.38-.232.516l.031.503h.078l.698-.624c-.016.472-.202.913-.481 1.308-.295.152-.621.228-.947.304 1.505-.091 2.963-.381 4.22-1.095" fill="#fff" transform="translate(505.0912 588.3427)"/><path d="m0 0c-.264-3.893-.419-7.954.202-11.801-.481-1.186-1.086-2.342-1.582-3.528l-.047-.699c-2.978-1.841-6.375-2.707-9.819-3.467-.884-.183-1.891-.168-2.698.197l-2.916 1.87c-1.459.29-2.947.502-4.219 1.217-.59.381-.295 1.171-.714 1.642-.822.7-1.706 1.475-2.032 2.494-.046.198.155.259.264.35 1.411.395 3.009.106 4.498.106l6.096-.365c3.366-.045 6.67-.03 10.005.275.046-.047 0-.122.046-.183.357.03.342.486.465.73.838 3.634.776 7.862.761 11.558.217-.153.434-.548.775-.457.263.182-.016.457.093.7.201-.32.528-.487.822-.639" fill="#f7a800" transform="translate(501.0732 587.4001)"/><path d="m0 0c.465.091.419.624.543.973.155-.334.466-.73.838-.973-1.52-3.452-2.932-6.981-3.444-10.812-.046-.396 0-.837.388-1.035 3.785-1.581 8.128-1.779 12.332-2.296.031.045.092 0 .123.045v-.045c2.001-.289 4.126-.304 5.957-1.034.17-.061.357-.182.465-.319 0-.213-.202-.366-.356-.472-.745-.41-1.536-.715-2.312-1.079-.558-.228-.279-.852-.481-1.247-.17-.487-.279-1.035-.791-1.323-1.07-.366-2.295-.183-3.412-.32-1.319-.046-2.482-.502-3.319-1.536-.481-.364-.823-1.11-1.521-.836-3.94 1.597-7.584 3.726-10.873 6.752-.357.364-.636.882-.481 1.459 2.373 5.019 4.483 10.159 5.786 15.634.031-.548.015-1.232.558-1.536" fill="#f7a800" transform="translate(506.3625 586.0773)"/><path d="m0 0-.077.015.108.03c.015-.03-.016-.03-.031-.045" fill="#fff" transform="translate(517.3445 572.0713)"/></g><path d="m1223.6759-158.70788h.039v-.0375h-.039z" fill="#fff"/></g></svg>