<svg height="329.448912" viewBox="0 0 164.27423 177.74936" width="303.537199" xmlns="http://www.w3.org/2000/svg"><g transform="translate(-3.576 -3.16794)"><path d="m78.218 139.026c1.234-.037 2.065.141 2.3 1.126s-.141 1.127-1.502 2.206-2.722 1.736-4.083 2.723c-1.361.985-4.177 2.816-4.365 4.506-.188 1.689.141 2.675 1.549 2.675s3.145.234 5.397.234 4.365.517 7.087 1.314c2.723.799 3.942 1.878 7.838 3.802 3.896 1.925 8.261 4.084 11.875 4.976s6.196 1.126 7.839.563 1.314-1.784 1.314-1.784.891.518 2.299-.516.141-3.849-.985-4.929c-1.126-1.079-2.347-2.065-2.347-2.065s.282-1.736-1.596-3.098-3.989-2.676-7.838-2.91c-3.85-.235-7.651.845-13.002 1.032-5.351.188-9.528-.798-10.044-1.126-.517-.328-.235-.751.845-1.268 1.079-.517 7.697-4.364 10.607-6.853l1.549.282.141-.846.563.61s1.314.47 1.361-4.459c0 0 1.126.376 1.314-.375s.094-3.286-3.755-4.506c-3.85-1.221-6.666-1.644-9.388-3.192s-3.989-2.769-3.989-2.769 5.96-7.839 8.824-11.922c0 0 1.83 1.079 6.383 1.268 4.553.188 6.337-2.723 5.867-6.196s-2.253-5.21-3.379-5.632c0 0-.048-.986-.188-1.644 0 0 2.957-3.379 8.496-16.193 0 0 4.646 2.91 6.758 4.882 2.112 1.971 5.351 5.726 6.853 5.914l.282-.47s2.3 2.535 4.553.845c0 0 .281-.75-.281-.985 0 0 2.628-.234 2.769-1.36 0 0-.094-.517-.985-1.033 0 0 4.271-3.098 5.82-6.759s.563-3.051 1.925-4.834c1.36-1.784 3.237-4.459 5.256-4.6 0 0 1.549 1.174 5.867.751s6.008-1.925 7.04-2.863c0 0 1.972.188 3.145-.047 1.174-.234 2.348-.141 3.427-.141 0 0-1.127 2.629-.563 4.694s1.126 2.769 2.628 2.769 2.676-1.69 3.709-2.863c1.032-1.174 2.675-8.261-1.456-8.824-4.13-.563-6.43-.281-7.463-.516-1.032-.235-2.019-1.409-1.924-1.831.094-.423 1.689-2.863 2.487-3.192s1.361.61 3.333.704c0 0 .059 2.159 1.643 2.582 1.583.422 2.394.563 4.036-.657 1.643-1.22 4.506-7.416 1.408-8.965s-4.131-.375-7.229.892-5.726 1.689-7.557 1.643c-1.83-.047-2.676-.892-2.065-1.878.61-.985 1.55-1.642 3.708-2.957 0 0-.188 1.549 1.549 1.736 1.737.188 4.084 0 6.478-3.004s1.644-8.026.517-9.012-2.91-2.722-5.914-.047-6.337 6.336-10.937 10.044-7.885 4.881-10.467 2.582c0 0 1.268-.563 2.723-1.033s3.802-2.44 2.863-4.178c-.938-1.736-4.178-3.473-6.993-2.299-2.816 1.173-6.994 3.849-7.135 6.853s2.019 3.708 3.708 4.834 3.849 2.253 4.365 4.788.563 6.665-.845 8.12-4.319 3.567-6.713 4.834-4.506 3.192-4.506 3.192-4.317-2.394-6.289-5.163c-1.971-2.769-3.332-6.477-3.332-6.477s1.267-7.651-1.314-11.5c0 0 1.596.188 1.924 0 .329-.188-.093-3.567-4.317-4.975 0 0 1.221-.938.704-1.502s-1.644-1.173-5.398-.705c0 0 1.08-4.271-.234-5.444s-3.191-2.3-3.521-2.159c-.328.141-.61-1.971-1.689-2.252 0 0 2.581-.141 3.238.188s.142-1.173-.845-1.69c-.985-.516-2.487-1.22-4.646-1.22 0 0 .234-3.52-.704-4.083s-1.268.985-1.268.985.141-4.506-1.689-4.693c0 0-.798.281-.798 1.83s-.188 1.878-.188 1.878-2.91-1.737-6.806-.047c0 0 1.737-1.549 2.957-1.831 1.22-.281.376-1.596-2.019-1.08-2.394.517-4.553 1.033-6.665 3.004 0 0 .328-1.502 1.549-2.581 1.221-1.08 2.159-3.051-.892-1.877-3.051 1.173-4.13 5.069-4.13 5.069s-.563-2.3-1.22-1.361c-.657.938-1.362 4.271-1.362 4.271s-1.924-2.019-2.628-3.426c-.704-1.408-1.033-4.365-.986-5.633.047-1.267-.329-2.018-1.689-.375-1.361 1.643-1.784 3.52-1.596 5.304 0 0-.657-1.69-1.126-1.08s-1.643 1.08-1.22 4.881c.422 3.802 3.051 5.82 3.051 5.82s-1.22 0-1.455 1.924c0 0-1.549-.329-2.628-1.831s-1.267-2.159-1.596-3.333-1.221-1.361-1.221.61c0 0-.891-.939-2.252-1.08s-3.286-.047-2.112 1.455c0 0-1.784-.704-3.286.469s-1.502 1.877-.422 2.253c0 0-1.033 1.596-.282 2.019 0 0-.892 1.549.141 3.285 0 0-1.267-1.173-3.802-.516 0 0 .422 1.173.704 1.455 0 0-1.455.188-.282 1.455 0 0-4.318-.047-8.12.563s-6.102 1.173-9.199.375c-3.098-.798-6.478-2.769-8.636-4.834 0 0 2.769-1.737 5.491-4.365 2.722-2.629 2.91-2.816 5.68-3.474 2.769-.657 3.989-.845 4.6-1.22 0 0 2.722.188 3.99-.657 0 0 2.159.657 4.928-1.033s4.459-4.74 5.867-6.336 1.784-1.173 3.286-1.924 2.44-1.69 1.267-3.99-1.126-3.567-2.91-5.163c-1.783-1.596-3.145-3.286-4.6-1.268-1.455 2.019-.938 4.694 2.676 7.933 0 0-1.972 1.267-3.38 1.126s-2.394-1.502-2.722-3.849c-.329-2.347-.375-4.177.375-6.008.751-1.831 2.394-5.304 3.473-5.116 0 0 .329 2.535 1.643 3.802s2.534 1.455 3.473.329 2.722-4.741 1.596-8.636c-1.126-3.896-2.816-4.834-4.834-4.647-2.018.188-4.177.845-6.665 6.149 0 0-.657-3.004-4.13-4.881s-3.145-1.549-4.037-.282c-.892 1.268-.798 2.347-.657 4.6s-.375 5.304-.798 6.336c0 0-1.643-2.581-4.318-3.426s-3.567.657-4.318 3.333-.938 4.788.704 9.95c1.643 5.163 2.628 7.37 5.163 10.232 0 0 1.173 1.174-2.769 1.69-3.943.516-3.99.657-9.81 1.08-5.82.422-13.236 2.206-15.114 7.65 0 0 .704.61 2.253-.282 0 0-2.253 1.972-1.361 5.117 0 0 .797.61 1.22-.235.422-.845.751-1.126.751-1.126s-.141 3.567 1.126 3.989c0 0 .469-.328.751-.751 0 0 .469.517 1.408 1.549.939 1.033 3.849 3.521 7.416 5.069 3.567 1.549 9.247 5.163 12.204 7.932 2.957 2.77 6.008 6.29 6.008 6.29s1.033 4.037 1.502 8.214 1.314 10.749 1.971 15.161 1.784 8.729 2.065 12.203c.282 3.474-.75 8.308-1.032 10.748-.282 2.441-.141 5.304-1.314 7.933 0 0-3.239-3.333-4.271-6.618-1.033-3.286-2.723-8.824-4.929-11.828s-4.271-4.834-7.04-4.787c0 0-.798.938.234 1.596s2.065 2.394 3.051 4.271c.985 1.877 1.314 3.332 1.267 4.646 0 0-1.361-1.268-1.596-.188-.235 1.079.329 2.018.892 3.285.563 1.268.704 5.21.845 7.557s.751 4.881 2.582 6.618 3.755 2.487 4.834 2.863c0 0-2.3 2.675-4.881 5.022-2.582 2.347-3.426 4.506-3.426 4.881 0 .376 2.206.329 2.206.329s-1.737 3.191-1.033 4.693h1.361s-.75 3.238 1.502 3.848l.422-.375s1.033 1.784 2.347 2.206c1.314.423 4.083 2.205 10.514 2.3 0 0-5.163 2.019-7.838 2.347-2.675.329-6.383.234-9.105.047-2.723-.188-5.632-.563-9.998 3.38-4.365 3.942-4.834 6.665-4.412 7.744 0 0-1.877 3.942.375 6.478 2.253 2.534 3.52.188 5.398-.751 0 0 .329 1.032 2.957 1.079 2.629.047 5.022-.798 8.167-3.004 3.145-2.205 8.12-6.524 11.875-9.199 3.755-2.676 8.683-5.633 10.936-6.712 2.253-1.08 2.534-2.159 2.065-2.91-.47-.751-.939-1.549-4.413-2.112-3.473-.563-7.04-1.221-7.838-3.051s.094-3.145 3.38-5.538c3.286-2.395 10.889-4.975 13.94-6.008s5.351-.798 8.824-.985c3.471-.186 6.29-.465 9.48-.56z"/><path d="m39.094 129.139s-1.128 3.946-2.819 5.826c0 0-3.571-.564-5.137-2.819s-2.443-3.445-2.631-7.329c-.188-3.885-.626-7.393-1.754-9.084 0 0 1.253 1.002 1.754 1.44 0 0 .501-3.946-1.378-6.953s-2.757-3.946-3.759-4.511c0 0 2.38-.25 4.761 2.631 2.381 2.883 3.508 4.323 4.887 9.272 1.377 4.949 3.757 9.773 6.076 11.527z" fill="#825810"/><path d="m105.344 58.046c-1.359-1.781-3.469-2.203-5.578-2.25-2.108-.047-3.937.094-3.937.094 1.64.562 2.905 1.313 3.328 2.296.422.984-.142 3.563-1.876 5.391s-5.25 2.953-8.53 3.328c-3.282.375-5.953-1.922-6.422-3.234s1.031-3.75 1.031-3.75c-1.031.609-3.375 2.719-4.031 3.609-.657.891-1.172 1.125-1.172 1.125.516-1.313 2.297-3.141 2.297-3.141-6.234-4.406-10.453-5.672-13.734-6.469s-5.015.375-5.015.375c.703.141 3.14 1.172 3.14 1.172s-2.015-.141-5.015.329c-3 .469-4.875 3.375-4.875 3.375 1.347-.381 2.146-.377 2.817-.161-.621.369-1.255.908-1.871 1.688-3.06 3.87-4.59 10.89-5.04 15.209-.45 4.32-.09 13.049.9 17.279.854 3.653.636 5.495.618 9.116-.196 3.495-.656 8.407-1.519 14.014-1.08 7.02-.45 9.449-.18 11.699.271 2.25 3.69 5.311 11.16 5.04 7.469-.27 13.5-6.84 17.009-10.35s8.55-11.7 8.55-11.7c-.45-.09-1.08-.899-1.08-.899-10.62 4.59-12.87 9.449-16.739 10.529-3.87 1.08-6.93.63-8.82-3.06-1.89-3.689-1.62-5.49-1.62-14.039 0-.387-.018-.746-.043-1.092.314-.326.555-.421.584.011.09 1.351 0 5.4-.09 7.381-.09 1.979.18 5.31 1.71 7.829 1.53 2.521 3.87 3.24 5.67 3.061 1.8-.181 3.87-1.08 5.58-2.341 1.71-1.26 6.93-5.939 11.789-7.919 4.86-1.98 4.23-.9 4.23-.9s-.899.09-1.529.36c0 0-.36.81 3.689 1.709 4.05.9 7.109.54 8.28-1.26 1.17-1.8 1.529-5.939-2.16-8.819l-.181 1.62s.63.989-.449.449c-1.08-.539-3.87-1.079-7.021-.989-3.149.09-6.75 1.439-9.449 2.34-2.7.899-3.06 1.979-5.22 3.33-2.16 1.35-4.95 2.97-7.379 2.069-2.43-.899-3.87-4.229-4.68-8.369-.811-4.141-.63-8.91.9-18.45s2.52-17.189 5.76-21.06c0 0-.221-.014-.705.025-.334 0-.792.023-1.284.117-.984.188-.422-.703 1.64-.797s3.375.563 4.922 1.359 1.266.938.141.422-1.875-.703-1.875-.703c-.609 1.875-1.266 3.609.844 6.891s7.781 3.281 10.688 2.578 6.469-3.797 7.594-4.969 1.781-2.063 2.813-2.156.796.094-.141.328c-.938.234-.703.516-.703.516 2.391.797 3.608.516 6.468.563s3.563-.188 5.672-2.625c2.108-2.436 1.498-5.342.139-7.124z" fill="#e0d0bb"/><path d="m79.188 66.765c-.304-.395-1.5.188-1.219.75s1.688-.14 1.219-.75z"/><path d="m78.392 70.656c-.524.104-.516.563-.375.844s.515.188.797-.188c.281-.375.281-.797-.422-.656z"/><path d="m74.501 66.765c-.371.222 0 .656.328.328s-.094-.468-.328-.328z"/><path d="m102.484 64.75c-.563.103-.563.75-.094 1.031s.75.188.844-.188-.234-.937-.75-.843z"/><path d="m102.672 61.328c-.362.136-.094.656.328.375s.047-.515-.328-.375z"/><path d="m104.125 60.062c-.3 0-.094.563.281.375.375-.187 0-.375-.281-.375z"/><path d="m63.873 106.5s.676 2.549 2.497 4.005c1.82 1.456 2.08.677 2.08.677s.572-3.225.156-5.306c-.416-2.08-1.041-3.173-2.133-2.34-1.091.832-1.82 1.664-2.6 2.964z" fill="#fff"/><path d="m68.97 111.181s1.561.207 4.161-1.404c2.6-1.612 3.588-2.86 5.305-3.589 0 0-.78-3.485-1.873-6.762s-2.081-5.306-2.497-5.306-.884 2.445-1.404 5.462-2.704 8.738-3.692 11.599z" fill="#fff"/><path d="m79.216 105.771s2.132-.779 4.525-1.611c0 0-.104-1.82-.988-3.173s-1.196-1.145-1.612-.313-1.768 4.266-1.925 5.097z" fill="#fff"/><path d="m84.574 103.951s3.016-.676 4.577-.728c0 0 .053-1.873-.779-3.277-.833-1.403-1.145-1.924-1.925-.623-.781 1.3-2.238 3.952-1.873 4.628z" fill="#fff"/><path d="m89.619 103.171s4.057-.052 6.397.937c0 0 .624-2.705-.104-5.41-.729-2.704-1.924-4.16-2.549-4.629-.624-.468-.728-.155-1.092 1.353s-1.04 4.629-2.809 6.813z" fill="#fff"/><path d="m63.249 88.244s-.676 5.41-.78 8.374c-.104 2.965.208 6.033 1.145 9.206 0 0 1.144-1.665 2.236-2.341s1.873-1.3 2.705.521c.833 1.82.676 4.057.728 4.889 0 0 1.092-3.068 2.081-6.657s1.3-7.021 1.977-8.01.832-.988 1.508-.052 1.873 4.005 2.548 6.345c.676 2.341 1.353 4.733 1.353 4.733s.884-2.444 1.612-3.953c.729-1.508 1.145-2.236 1.873-1.56.729.676 1.665 2.08 1.821 3.016 0 0 1.04-2.496 1.769-3.432.728-.937 1.092-1.405 1.456-1.197 0 0-.729-4.368-2.549-7.905s-4.057-6.345-7.125-6.033-4.212 2.601-4.473 3.589c0 0 .78 1.196.676 2.705 0 0-.572-2.289-2.237-4.109s-4.423-4.267-8.324 1.871z" fill="#ed1847"/><path d="m87.851 98.125s-1.041-5.46-2.601-8.269c-1.561-2.809-3.329-5.045-4.993-5.722-1.664-.676-5.461-1.248-7.438 2.861 0 0-1.82-3.484-4.941-3.225-3.121.26-4.369 2.965-4.473 3.225 0 0 .832-4.681 1.352-7.958s1.665-11.339 4.837-15.396c0 0 .832-.26 1.924.26 0 0-1.353 2.809-.312 5.097 1.04 2.288 1.508 3.016 2.132 3.484 0 0-.572 4.161 2.808 5.565 0 0 1.613-3.485 1.769-3.589l.625.104s.364 1.769.364 3.277-.104 3.279-.104 4.112c0 .832.104 1.3.676 1.404s2.185-.417 3.901-3.173 2.028-4.681 2.132-6.969l1.196-.572s-.26 2.86.521 3.172c.78.313 1.508.156 2.288-1.3.78-1.457 1.82-3.849 1.977-5.565l.364-.572s-.208 2.081-.208 3.589.312 2.185.936 2.549 1.405-.104 2.497-1.821c1.092-1.716 2.288-3.953 2.288-3.953s-.572 3.069-1.3 5.253c-.729 2.185-1.093 3.277-.729 3.953 0 0-.416 1.561-1.352 3.849-.937 2.289-2.081 4.681-2.133 7.438-.053 2.757.624 4.213.624 4.213s-.729 2.133-1.196 3.745-1.248 3.381-1.769 4.108c.002-.001-.779-2.289-1.662-3.174z" fill="#a72244"/><path d="m95.971 78.097s-1.705 4.191-2.416 6.749c-.71 2.557-1.421 4.546-.497 8.311 0 0 3.339 2.558 3.623 6.536 0 0 3.481-6.181 5.825-10.798 2.345-4.618 6.039-16.411 6.465-17.831.427-1.421.355-1.776 0-2.558-.355-.781 0-1.208.427-.497.426.71.78 1.137.78 2.06 0 0 1.137-2.7.285-7.104-.853-4.404-1.421-4.404-1.421-4.404s1.278-.498 2.202-.143c0 0-1.137-3.054-4.831-3.836 0 0 .071-.426.711-.923.639-.498.568-.995-.782-1.066s-6.891.285-8.524 2.7c0 0 3.623 0 5.399.568 1.775.568 4.049 3.41 3.765 5.683s-1.137 4.404-3.907 6.394c0 0-1.278 4.973-2.842 6.962-1.563 1.989-3.197 3.055-4.262 3.197z" fill="#e0d0bb"/><path d="m104.116 64.362s-.758.568.189.663 5.872.189 10.987 1.989c.001.001-1.894-1.515-11.176-2.652z"/><path d="m103.832 61.899s-.474.474.284.474 7.104-1.231 12.219-.379c0 .001-4.736-.852-12.503-.095z"/><g fill="#fff"><path d="m73.839 72.695s2.829 1.349 3.75 1.514c0 0-1.382 2.829-1.612 3.125s-2.566-1.119-2.138-4.639z"/><path d="m79.07 74.471s3.686.033 5.89-1.02c0 0 .394 2.303-1.284 5.231s-2.434 3.455-3.29 3.916c-.855.46-1.185.691-1.119-.823.066-1.513.132-6.185-.197-7.304z"/><path d="m87.229 72.267s-.428 3.126.23 3.257 1.81 0 3.619-6.35c.001 0-3.257 2.731-3.849 3.093z"/><path d="m92.625 67.694-.428.395s-.197 3.027-.197 3.784.296 2.171.79 2.271c.493.099 1.514-.56 4.277-5.857 0-.001-2.369.032-4.442-.593z"/><path d="m97.791 68.286s-.494 3.652-1.251 5.725-1.282 3.455-.789 3.652c.493.198 1.875-.329 3.783-2.764 1.909-2.435 2.501-4.968 2.863-6.843 0 0-2.698.46-4.606.23z"/><path d="m94.601 58.191c.28.903-.881 2.133-2.657 2.765-1.85.657-3.638.415-3.924-.562-.285-.972 1.044-2.247 2.898-2.83 1.782-.561 3.402-.273 3.683.627z"/></g><path d="m114.547 156.744c-1.628-2.056-5.612-4.542-7.327-4.842 0 0-.557-.428.558-.214 1.113.214 3.514 1.457 4.113 2.057 0 0 .471-1.328-2.143-2.956-2.613-1.629-5.014-2.571-8.87-2.271-3.855.3-11.783 1.199-15.725.856-3.942-.342-6.728-1.242-6.342-2.014s2.228-1.843 5.228-3.599c3-1.758 6.771-4.328 7.114-5.271l1.199.6s.215-1.328 0-1.799c0 0 1.243.042 1.5 1.37 0 0 .938-1.614.191-4.984.749.266 1.404.64 1.651.957 0 0-.001-1.971-1.586-2.742s-4.456-1.757-6.898-2.271c-2.443-.514-5.228-1.628-8.355-5.013 0 0-3.343 3.813-6.856 6.256-3.514 2.442-8.655 4.156-12.254 4.113-3.6-.043-8.57-2.313-9.556-5.185-.921-2.683-.458-7.947-.218-10.584.472-2.954.77-6.157 1.104-9.251.414-3.848 1.006-9.709.71-12.018s-1.54-7.044-1.717-14.74c-.178-7.696 1.539-17.523 5.92-22.377 0 0-1.006-.059-1.835.355 0 0-.06-4.025 6.808-5.091l-.533-.533s-2.486 1.125-4.795-.532c-2.309-1.658-4.203-3.552-4.203-3.552s-1.125-1.184-3.611-1.243c0 0 1.421 1.006 1.54 1.539.118.533-.77.237-1.48.119-.71-.119-.889.237-.237.533.651.296 1.006.888.059.888s-6.334.119-9.768.651-2.664 1.184-5.979.71-8.702-2.427-11.307-5.564c0 0-3.576 1.308-6.547 1.232.812-.327 3.435-.894 5.079-1.611 2.522-1.102 4.262-1.989 6.998-4.938 2.735-2.948 5.79-3.694 7.672-3.942 1.882-.249 2.415-.782 2.415-.782-.817-.106-.71-.497-.533-.497s1.741.142 3.126.142 2.557-.888 3.019-2.096 0-2.735-.284-3.587c-.284-.853-.249-1.244.071-.746.32.497.462.853.888 2.522s-.391 3.125-.391 3.125c3.339.497 6.287-2.557 7.317-4.014 1.03-1.456 1.492-2.131 2.735-3.161s2.202-1.457 3.019-1.918c.817-.462 1.243-1.279 1.243-1.279-.817-3.765-2.309-5.363-3.552-6.82-1.243-1.456-2.593-2.06-3.481-.923-.888 1.136-.675 1.954.036 3.623.71 1.67 3.232 3.694 3.232 3.694-.817 1.101-1.776 1.634-3.481 1.918s-2.522-.142-3.055-.888-1.101-2.983-1.208-4.12c-.106-1.137-.249-1.705-.142-3.303.106-1.598.533-2.735 2.024-5.541 1.492-2.806 2.522-2.416 2.522-2.416s0-.639.036-1.101c.035-.462.177-3.375.497-.106.32 3.268 1.385 4.902 2.522 5.719s2.238-.462 3.268-3.943-1.066-7.246-2.664-8.276c-1.599-1.03-4.653.817-5.896 2.451s-2.273 4.156-2.273 4.156c.106 1.492.604 3.126-.319 4.618-.924 1.492-3.055.249-3.055.249-1.349 2.416-1.208 3.446-1.208 4.014s.355 1.847 0 1.598-.639-1.669-.391-2.912c.249-1.243 1.101-3.055 1.101-3.055-3.375-2.522-3.481-6.5-3.481-6.5s.675 1.244 1.102 2.771c.426 1.527 2.734 3.268 3.871 3.871 1.137.604 2.061-.604 2.132-1.847s-.391-3.979-1.812-5.967c-1.42-1.989-3.942-3.552-4.866-3.765-.923-.213-1.243.533-1.527 1.847s0 3.516.036 5.612c.035 2.096-1.03 4.653-1.03 4.653 1.03 1.137 1.421 2.167 1.883 4.582.461 2.415-1.03 4.156-2.344 4.156s-3.197-1.599-4.476-3.623c-1.279-2.025-1.066-3.587-1.066-3.587s.853 2.025 2.38 4.44c1.527 2.416 3.872 1.989 4.369 1.563s.568-4.014-.781-6.571c-1.35-2.558-4.049-4.263-5.328-4.724s-2.238.639-3.268 3.907-.249 6.003 1.563 10.833 3.587 6.926 4.511 7.814c.923.888.497 1.172.284 1.776s-1.101.782-3.055 1.279-8.951 1.137-13.746 1.705-6.216 1.705-8.276 3.055c-2.06 1.349-2.486 2.628-2.486 2.628s.959-.674 1.812-.674.036.639-1.065 2.273c-1.102 1.634-.355 3.445-.355 3.445.533-1.35 1.776-2.344 2.096-2.131.121.081.186.434.22.842-.002.008-.004.015-.006.022-.474 1.895-.06 2.605.237 3.375 0 0 .236-1.362 1.302-.77 1.065.592-.474.415 2.782 2.901s3.789 2.783 6.216 3.848 5.209 3.019 8.347 4.973c3.137 1.954 7.992 6.689 9.59 8.525 1.599 1.835.651 2.309 1.302 4.38.651 2.072.415 3.138.711 5.624s.592 6.512.888 7.814c.507 2.23 1.065 8.584 1.599 10.715.533 2.131 1.302 6.571 1.302 8.88 0 1.434 0 3.188-.014 4.863-.005.033-.013.062-.016.097-.386 3.856-.771 4.842-1.243 8.526-.471 3.686-1.756 7.585-2.056 8.527-.723 2.268-2.742 4.199-5.099 6.813-2.356 2.613-5.099 5.014-5.57 6.213 0 0 1.2.129 2.143.086 0 0-.771.729-.986 2.014-.214 1.285-.771 2.657-.771 2.657s1.028-.729 1.5-.086c.036.048.079.09.126.128-.459 1.689-.628 2.827.472 3.812 0 0 .198-1.387.726-1.321s.066 1.585 1.717 2.773c1.651 1.189 5.019 2.378 8.585 2.642 3.566.265 6.009-.132 6.273.265s-1.716.396-3.962 1.387c-2.245.99-5.547 2.179-8.188 2.443-2.38.238-6.273.198-9.246-.132-2.971-.331-4.755.132-6.736 1.519s-3.764 3.236-5.085 4.953-1.651 2.113-1.453 3.235c0 0 1.453-2.179 2.575-3.037 1.123-.859 2.444-1.52 4.359-1.321 0 0-3.5.595-5.019 2.905-1.519 2.312-3.104 4.161-2.444 6.538.661 2.378 1.717 2.642 2.774 2.443s2.047-1.188 2.708-1.915c0 0-.792-2.575.528-4.82 1.321-2.246 3.236-3.896 6.274-3.896 0 0-3.17.99-4.557 2.708-1.387 1.717-2.047 3.764-1.519 6.009 0 0 .528 1.387 2.906 1.255s5.085-1.452 7.991-3.5c2.905-2.047 4.49-3.632 8.584-6.935 4.095-3.302 9.18-5.943 11.293-7 2.113-1.056 4.094-1.914 4.094-3.169s-2.113-1.718-4.688-2.048c-2.576-.33-6.34-.925-7.462-3.17s-.726-3.962 2.576-6.075c2.456-1.572 5.022-2.888 7.536-3.921 1.425-.438 3.698-1.221 5.273-1.895.508-.175.998-.342 1.464-.499 2.172-.607 5.444-1.146 7.183-1.346 1.027-.025 2.175-.05 3.441-.133 3.038-.197 7.396-.396 9.179-.197.183.02.315-.013.409-.084.708.12 1.277.297 1.488.558.729.899.557 2.186-.171 2.956-.729.771-3.128 2.229-5.099 3.6s-3.728 2.657-4.157 4.414c-.428 1.757.857 1.628 1.8 1.628.942 0 5.913-.043 9.041.686s4.584 1.414 7.627 2.999c3.042 1.586 8.74 4.671 11.997 5.699 3.256 1.028 7.069 2.057 8.569 1.886s2.528-.643 2.442-1.714c-.085-1.071-1.585-2.914-3.642-4.156-2.057-1.243-3.128-1.585-3.085-1.757s.472-.215 1.628.3c1.157.515 4.842 3.128 5.441 4.842 0 0 1.029.729 1.843.3.81-.433 1.324-1.89-.304-3.946z" fill="#825810"/><path d="m51.469 46.155s2.167-1.548 3.405-1.754c1.238-.207 3.611.464 4.694 1.754s1.754 2.27 1.754 2.27.258-.67.155-1.032c0 0 1.083.877 1.187 2.683s-.361 4.127-.877 4.591 1.29-.929 4.54-.31 5.778 1.599 5.778 1.599-1.083-2.528.361-5.004c0 0-1.444-.31-2.425.155-.98.464-2.476 1.083-2.115.516s1.496-1.96 1.496-1.96-.774-.31-.207-.825c.567-.516 1.341-1.341 3.095-1.444s3.536-.021 6.242.722c2.631.722 7.016 2.734 9.08 4.437l-.104-.258s.052-4.333 1.29-6.604c1.238-2.27 2.167-3.663 2.27-4.023.104-.361-.773-1.497-1.548-1.083-.773.413-3.25 2.167-4.179 4.643 0 0-1.187-1.393 3.869-5.313 0 0-.516-.567-1.031-.67-.516-.104-3.096-.104-3.096-.104s2.115 1.651.567 2.838c-1.547 1.187-4.591.413-6.964-.826 0 0 4.953 1.548 6.294.413s-.62-2.167-1.341-2.373c0 0-3.508-.155-4.23-.826 0 0-.206-.258 1.651-.206s7.48.103 8.873-.052 2.579-1.238-.155-2.115c-2.733-.877-5.21-.155-6.036.258-.825.413-1.083 1.032-1.547.567-.464-.464.722-2.321 4.179-3.766 0 0-2.786-.103-5.313 1.187-2.528 1.29-3.56 2.631-3.56 2.631s-.67-3.095 2.941-5.571c0 0-2.941-.104-5.623 5.88 0 0-1.135-.619-.98-1.806 0 0-.928 2.012-1.341 5.004 0 0-2.528-1.651-3.56-3.869s-1.341-3.766-.98-7.119c0 0-1.857 1.135-2.064 4.076-.206 2.94.31 3.146-.516 3.146s-1.135-1.857-1.135-1.857-1.909 3.87.155 6.707c2.063 2.837 3.714 3.56 3.714 3.56s-2.115-.464-2.528.619-.464 1.6.722 2.58c0 0-.774.31-2.631-1.083s-3.508-2.837-4.127-5.313c0 0-.207.619-.31 1.238 0 0-2.374-2.58-4.437-1.445 0 0 1.135 1.032 1.032 1.548s-.31-.516-1.96-.413-2.889 1.341-2.889 1.341l1.187.206c0-.003-.825 1.081-.722 1.855z" fill="#825810"/><path d="m75.974 43.008c-1.238-.052-1.857.103-2.373.619s-1.238.052-.104-.567 3.405-1.083 6.139.361c0 0 .826.671-1.238.052-2.064-.62-2.424-.465-2.424-.465z"/><path d="m57.711 45.587c-1.175-.641-2.837-.877-4.437.207-1.599 1.083-3.663 2.527-1.083 5.468 2.58 2.94 5.21 4.178 7.016 4.023s3.044-2.476 2.786-3.869c-.258-1.392-2.012-4.591-4.282-5.829z" fill="#e0d0bb"/><path d="m90.114 39.143s.138.231.138.509c0 0 1.018.277 1.896 1.017 0 0 1.156-1.109 2.497-1.202 0 0 .277-3.329-.37-3.421l-1.155 1.525s-.324-.555-.324-1.433-.276-3.56-1.248-3.56c-.462 0 .647 1.11-.323 3.19 0 0 1.757.925 1.109 2.034-.648 1.11-1.203 1.064-2.22 1.341z" fill="#825810"/><path d="m80.839 61.014s-3.552-2.482-5.242-3.23c0 0-1.327-2.482-.834-3.98.492-1.498 2.375-3.103 5.499-2.396 3.124.706 6.162 2.247 8.708 4.621-.001 0-2.333.749-8.131 4.985z" fill="#fff"/><path d="m85.332 54.681c-.928-.272-2.097.749-1.711 2.225.385 1.476 1.519 1.22 1.711 1.134.192-.085 1.391-2.953 0-3.359z"/><path d="m89.478 55.926s-.297-4.398 2.24-8.415c2.537-4.018 3.003-4.821 4.271-2.833s1.311 8.711-.338 10.994c0 0-2.538-.423-6.173.254z" fill="#fff"/><path d="m92.944 51.908c-.929.067-1.396 1.058-1.396 1.819s.296 2.029.973 2.029 1.311-1.48 1.311-2.241-.296-1.649-.888-1.607z"/><path d="m102.416 47.172s-.211-.761-1.311-1.226-1.354-1.015-2.283.042c-.931 1.058-1.48 2.833-1.48 2.833s-.042 3.933-.38 5.582c0 0 .465-.803.972-2.157.508-1.353 1.48-3.763 2.453-4.482s1.395-.718 2.029-.592z" fill="#825810"/><path d="m97.596 54.023s1.142-2.791 1.776-4.017c.634-1.227 1.479-2.495 3.002-2.241 0 0 .296 1.142.254 2.706s-1.016 2.199-1.016 2.199-2.494.845-3.213 1.269c0-.001-1.649 1.268-.803.084z" fill="#e0d0bb"/><path d="m109.739 71.486s.24 1.15.527 1.102.335-1.15.335-1.15 1.727 4.361 3.69 6.565c1.965 2.204 4.984 4.601 6.326 5.08 0 0-.91 1.15-1.055 2.157-.144 1.006-.096 2.013.24 1.198.335-.815.623-2.252 1.82-3.163 1.198-.911 3.595-2.971 5.751-4.313 2.157-1.342 3.067-1.726 4.505-3.259 1.438-1.534 2.396-3.354 2.109-6.086-.288-2.732-.001-4.265-.863-5.367-.862-1.103-2.108-2.061-4.073-3.403s-3.786-2.923-3.307-4.745c.479-1.821 2.492-3.642 4.601-4.984s3.978-1.246 5.367-.862c1.39.383 3.115 1.341 3.067 2.588-.048 1.246-2.349 2.827-4.025 3.258-1.678.432-3.738.959-3.45 1.438.287.479 1.39-.24 1.39-.24s.958 1.342 2.827 1.629 4.265-.288 7.093-2.396c2.828-2.109 6.949-5.751 8.818-7.38s3.163-3.834 4.937-4.744c1.772-.911 3.45-1.007 4.601 1.389 1.149 2.396.432 7.237-2.396 8.914s-4.792 1.869-5.271.575.287-3.45.862-4.745c.575-1.294 1.246-3.642 1.246-3.642s-1.342 2.061-2.108 3.499c-.767 1.438-.814 3.546-.814 3.546s-2.109 1.629-3.26 2.348c-1.149.719-2.061 2.3-1.054 3.307s3.978.91 5.654.575c1.678-.335 4.841-1.582 6.806-2.396s2.492-.862 3.738-.335 2.54 1.581 1.438 4.792-3.067 4.84-4.648 4.169c-1.582-.671-3.133-2.444-1.342-5.032 1.79-2.588 1.821-3.259 1.102-2.684s-2.156 2.492-2.444 4.745c0 0-.814.288-1.437-.144s-.863-1.103-2.062-.432c-1.197.671-2.539 2.828-2.875 3.451s.191 1.582 1.007 2.108c.814.527 1.82.958 4.408.958s4.841-.144 5.799 1.198c.959 1.342.958 3.882.239 5.655-.718 1.773-2.539 4.41-4.121 3.882-1.581-.527-2.156-2.396-1.629-4.745s1.198-3.786 1.198-3.786-.671 0-1.246 1.103c0 0-2.014.048-2.732.048s-1.103.288-2.252.288c-1.15 0-1.629-.288-2.636.383s-2.349 2.013-5.08 2.205c-2.731.191-4.984.24-5.847-.144-.862-.383-.958-1.198-1.581-1.773s-.863-.335-.479.335.384 1.006.384 1.006-1.246.479-3.211 2.492-2.685 3.306-3.02 4.217c-.336.91-.24 2.444-1.773 4.553-1.533 2.108-3.163 3.93-5.463 5.176 0 0-.192.67 1.197 1.341 0 0-1.197.863-2.923.768 0 0-.287 1.103.814 1.198 0 0-.862 1.007-2.444.096-1.581-.91-2.3-1.725-2.3-1.725l.335 1.006s-.719 0-1.438-.91c-.719-.911-3.067-2.828-4.601-4.505-1.533-1.678-5.367-4.313-7.236-5.08.001.002 3.163-8.769 4.265-12.171z" fill="#825810"/><path d="m143.143 64.153s1.63 3.546-1.006 6.757c0 .001 4.073-3.306 1.006-6.757z"/><path d="m74.659 68.909s-5.115.379-8.809 4.452c0 0 .379-2.937 7.862-4.831-.001 0 1.326-.379.947.379z"/><path d="m75.7 70.14s.664.474.095.664c-.568.189-3.505 1.42-6.346 5.209 0 0-.947-.663 6.251-5.873z"/></g></svg>